<svg xmlns="http://www.w3.org/2000/svg" version="1.1" xmlns:xlink="http://www.w3.org/1999/xlink" xmlns:svgjs="http://svgjs.dev/svgjs" width="1000" height="1000" viewBox="0 0 1000 1000"><rect width="1000" height="1000" fill="#0080ff"></rect><g transform="matrix(0.7,0,0,0.7,149.84897959183667,150.19913061224486)"><svg viewBox="0 0 343 343" data-background-color="#0080ff" preserveAspectRatio="xMidYMid meet" height="999" width="1000" xmlns="http://www.w3.org/2000/svg" xmlns:xlink="http://www.w3.org/1999/xlink"><g id="tight-bounds" transform="matrix(1,0,0,1,0.0740000000000407,0.07400000000001228)"><svg viewBox="0 0 342.85155851775386 342.85155851775386" height="342.85155851775386" width="342.85155851775386"><g><svg></svg></g><g><svg viewBox="0 0 342.85155851775386 342.85155851775386" height="342.85155851775386" width="342.85155851775386"><g><path d="M0 171.426c0-94.676 76.75-171.426 171.426-171.426 94.676 0 171.426 76.75 171.426 171.426 0 94.676-76.75 171.426-171.426 171.426-94.676 0-171.426-76.75-171.426-171.426zM171.426 339.418c92.78 0 167.992-75.213 167.992-167.992 0-92.78-75.213-167.992-167.992-167.993-92.78 0-167.992 75.213-167.993 167.993 0 92.78 75.213 167.992 167.993 167.992z" data-fill-palette-color="tertiary" fill="#ffffff" stroke="transparent"></path><ellipse rx="164.56874808852186" ry="164.56874808852186" cx="171.42577925887693" cy="171.42577925887693" fill="#ffffff" stroke="transparent" stroke-width="0" fill-opacity="1" data-fill-palette-color="tertiary"></ellipse></g><g transform="matrix(1,0,0,1,64.84655864529837,91.9467794364518)"><svg viewBox="0 0 213.1584412271571 158.95799964485025" height="158.95799964485025" width="213.1584412271571"><g><svg viewBox="0 0 213.1584412271571 158.95799964485025" height="158.95799964485025" width="213.1584412271571"><g><svg viewBox="0 0 213.1584412271571 158.95799964485025" height="158.95799964485025" width="213.1584412271571"><g transform="matrix(1,0,0,1,0,95.9982041215395)"><svg viewBox="0 0 213.1584412271571 62.95979552331073" height="62.95979552331073" width="213.1584412271571"><g><svg viewBox="0 0 213.1584412271571 62.95979552331073" height="62.95979552331073" width="213.1584412271571" id="textblock"><g><svg viewBox="0 0 213.1584412271571 38.07149692609183" height="38.07149692609183" width="213.1584412271571"><g transform="matrix(1,0,0,1,0,0)"><svg width="213.1584412271571" viewBox="2.880000114440918 -38.09000015258789 272.9499816894531 48.76000213623047" height="38.07149692609183" data-palette-color="#0080ff"><path d="M19.07 0.51L19.07 0.51Q13.87 0.51 10.25-1.78 6.64-4.08 4.76-8.14 2.88-12.21 2.88-17.55L2.88-17.55 2.88-17.99Q2.88-23.34 4.82-27.4 6.76-31.47 10.27-33.76 13.77-36.06 18.48-36.06L18.48-36.06Q22.24-36.06 24.79-35.06 27.34-34.06 29.44-32.2L29.44-32.2 29.44-25.61 27.54-25.61 27.42-31.3Q26.22-32.23 24.96-32.85 23.71-33.47 22.16-33.8 20.61-34.13 18.46-34.13L18.46-34.13Q14.43-34.13 11.4-32.1 8.37-30.08 6.7-26.45 5.03-22.83 5.03-18.04L5.03-18.04 5.03-17.55Q5.03-12.67 6.69-9.05 8.35-5.42 11.5-3.41 14.65-1.39 19.07-1.39L19.07-1.39Q21.51-1.39 23.8-2.01 26.1-2.64 27.69-3.71L27.69-3.71 27.81-9.25 29.71-9.25 29.71-2.42Q27.49-0.95 24.78-0.22 22.07 0.51 19.07 0.51ZM46.63 0.51L46.63 0.51Q43.14 0.51 40.52-1.18 37.91-2.88 36.45-5.87 34.98-8.86 34.98-12.74L34.98-12.74 34.98-13.65Q34.98-17.55 36.45-20.53 37.91-23.51 40.51-25.21 43.11-26.9 46.58-26.9L46.58-26.9Q50.07-26.9 52.68-25.21 55.3-23.51 56.76-20.53 58.23-17.55 58.23-13.65L58.23-13.65 58.23-12.74Q58.23-8.86 56.76-5.86 55.3-2.86 52.7-1.17 50.1 0.51 46.63 0.51ZM46.63-1.37L46.63-1.37Q49.56-1.37 51.68-2.89 53.81-4.42 54.95-6.99 56.1-9.57 56.1-12.74L56.1-12.74 56.1-13.65Q56.1-16.8 54.94-19.37 53.78-21.95 51.65-23.49 49.51-25.02 46.58-25.02L46.58-25.02Q43.67-25.02 41.54-23.49 39.4-21.95 38.25-19.37 37.11-16.8 37.11-13.65L37.11-13.65 37.11-12.74Q37.11-9.55 38.25-6.97 39.4-4.39 41.54-2.88 43.67-1.37 46.63-1.37ZM72.8 0L62.71 0 62.71-1.73 66.69-1.88 66.69-24.54 62.71-24.68 62.71-26.42 68.57-26.42 68.77-21.44Q69.99-24.02 72.18-25.46 74.36-26.9 77.44-26.9L77.44-26.9Q80.68-26.9 82.76-25.28 84.83-23.66 85.69-20.29L85.69-20.29Q86.79-23.41 89.08-25.17 91.38-26.93 94.77-26.93L94.77-26.93Q99.07-26.93 101.35-24.08 103.63-21.24 103.63-15.26L103.63-15.26 103.63-1.9 107.61-1.73 107.61-0.02 97.5-0.02 97.5-1.73 101.48-1.9 101.48-15.31Q101.48-20.61 99.59-22.8 97.7-25 94.48-25L94.48-25Q90.67-25 88.65-22.66 86.64-20.31 86.23-16.67L86.23-16.67 86.23-1.88 90.2-1.73 90.2 0 80.1 0 80.1-1.73 84.08-1.88 84.08-15.28Q84.08-20.58 82.18-22.79 80.29-25 77.05-25L77.05-25Q73.38-25 71.42-22.94 69.45-20.87 68.82-17.55L68.82-17.55 68.82-1.88 72.8-1.73 72.8 0ZM121.11 0L111.03 0 111.03-1.73 115.01-1.88 115.01-24.54 111.03-24.68 111.03-26.42 116.89-26.42 117.08-21.44Q118.3-24.02 120.49-25.46 122.67-26.9 125.75-26.9L125.75-26.9Q129-26.9 131.07-25.28 133.15-23.66 134-20.29L134-20.29Q135.1-23.41 137.39-25.17 139.69-26.93 143.08-26.93L143.08-26.93Q147.38-26.93 149.66-24.08 151.95-21.24 151.95-15.26L151.95-15.26 151.95-1.9 155.93-1.73 155.93-0.02 145.82-0.02 145.82-1.73 149.8-1.9 149.8-15.31Q149.8-20.61 147.91-22.8 146.01-25 142.79-25L142.79-25Q138.98-25 136.97-22.66 134.95-20.31 134.54-16.67L134.54-16.67 134.54-1.88 138.52-1.73 138.52 0 128.41 0 128.41-1.73 132.39-1.88 132.39-15.28Q132.39-20.58 130.5-22.79 128.61-25 125.36-25L125.36-25Q121.7-25 119.73-22.94 117.77-20.87 117.13-17.55L117.13-17.55 117.13-1.88 121.11-1.73 121.11 0ZM170.77 0.51L170.77 0.51Q167.47 0.51 164.93-1.12 162.39-2.76 160.94-5.65 159.49-8.54 159.49-12.33L159.49-12.33 159.49-13.77Q159.49-17.55 160.92-20.52 162.34-23.49 164.81-25.2 167.28-26.9 170.35-26.9L170.35-26.9Q173.45-26.9 175.73-25.54 178.02-24.17 179.24-21.7 180.46-19.24 180.46-15.87L180.46-15.87 180.46-13.62 161.66-13.62 161.64-12.16Q161.66-9.06 162.81-6.62 163.95-4.17 166.01-2.77 168.06-1.37 170.77-1.37L170.77-1.37Q173.26-1.37 175.17-2.2 177.09-3.03 178.58-4.44L178.58-4.44 179.56-2.93Q177.97-1.42 175.83-0.45 173.7 0.51 170.77 0.51ZM161.83-15.65L161.9-15.5 178.33-15.5 178.33-16.28Q178.33-18.77 177.37-20.75 176.41-22.73 174.61-23.88 172.82-25.02 170.35-25.02L170.35-25.02Q168.06-25.02 166.21-23.79 164.37-22.56 163.21-20.43 162.05-18.31 161.83-15.65L161.83-15.65ZM195.47 0L185.39 0 185.39-1.73 189.37-1.88 189.37-24.54 185.39-24.68 185.39-26.42 191.22-26.42 191.42-21.31Q192.64-23.97 194.87-25.44 197.11-26.9 200.28-26.9L200.28-26.9Q204.58-26.9 206.79-24.23 209-21.56 209-15.82L209-15.82 209-1.88 212.98-1.73 212.98 0 202.89 0 202.89-1.73 206.87-1.88 206.87-15.82Q206.87-20.85 205.04-22.92 203.21-25 199.96-25L199.96-25Q196.2-25 194.15-22.8 192.1-20.61 191.49-17.14L191.49-17.14 191.49-1.88 195.47-1.73 195.47 0ZM227.13 0.49L227.13 0.49Q224.4 0.49 222.95-1.25 221.49-2.98 221.49-6.81L221.49-6.81 221.49-24.56 216.78-24.56 216.78-26.42 221.49-26.42 221.49-33.37 223.64-33.37 223.64-26.42 229.94-26.42 229.94-24.56 223.64-24.56 223.64-6.81Q223.64-3.88 224.66-2.61 225.67-1.34 227.35-1.34L227.35-1.34Q228.16-1.34 228.87-1.42 229.57-1.49 230.53-1.61L230.53-1.61 230.87 0.05Q230.06 0.27 229.12 0.38 228.18 0.49 227.13 0.49ZM245.03 0L234.94 0 234.94-1.73 238.92-1.88 238.92-36.21 234.94-36.35 234.94-38.09 241.05-38.09 241.05-1.88 245.03-1.73 245.03 0ZM254.69 10.67L254.69 10.67Q254.2 10.67 253.57 10.57 252.93 10.47 252.62 10.38L252.62 10.38 252.89 8.54Q253.18 8.62 253.76 8.68 254.35 8.74 254.64 8.74L254.64 8.74Q256.72 8.74 257.91 7.46 259.11 6.18 260.04 3.71L260.04 3.71 261.53-0.24 251.66-24.58 248.81-24.68 248.81-26.42 257.35-26.42 257.35-24.68 253.96-24.58 261.43-5.91 262.46-3.08 262.6-3.08 270.76-24.58 267.31-24.68 267.31-26.42 275.83-26.42 275.83-24.68 272.98-24.58 261.94 4.32Q261.23 6.18 260.34 7.62 259.45 9.06 258.11 9.86 256.77 10.67 254.69 10.67Z" opacity="1" transform="matrix(1,0,0,1,0,0)" fill="#0080ff" class="undefined-text-0" data-fill-palette-color="quaternary" id="text-0"></path></svg></g></svg></g><g transform="matrix(1,0,0,1,0,47.059263634415885)"><svg viewBox="0 0 213.1584412271571 15.900531888894847" height="15.900531888894847" width="213.1584412271571"><g transform="matrix(1,0,0,1,0,0)"><svg width="213.1584412271571" viewBox="3 -39.54999923706055 536.8699951171875 40.04999923706055" height="15.900531888894847" data-palette-color="#0080ff"><path d="M22.55 0.5L22.55 0.5Q18.55 0.5 15.03-1.07 11.5-2.65 8.8-5.43 6.1-8.2 4.55-11.83 3-15.45 3-19.55L3-19.55Q3-23.6 4.5-27.23 6-30.85 8.68-33.63 11.35-36.4 14.9-37.98 18.45-39.55 22.55-39.55L22.55-39.55Q26-39.55 29.1-38.45 32.2-37.35 34.9-35.1L34.9-35.1Q35.35-34.75 35.35-34.13 35.35-33.5 34.95-33.02 34.55-32.55 33.85-32.55L33.85-32.55Q33.65-32.55 33.45-32.63 33.25-32.7 33.05-32.83 32.85-32.95 32.6-33.15L32.6-33.15Q30.6-34.95 28.05-35.75 25.5-36.55 22.55-36.55L22.55-36.55Q19.2-36.55 16.2-35.18 13.2-33.8 10.9-31.43 8.6-29.05 7.3-26 6-22.95 6-19.55L6-19.55Q6-16.05 7.3-12.95 8.6-9.85 10.88-7.5 13.15-5.15 16.15-3.83 19.15-2.5 22.55-2.5L22.55-2.5Q25.5-2.5 28.08-3.4 30.65-4.3 32.9-6.15L32.9-6.15Q33.3-6.5 33.85-6.4 34.4-6.3 34.8-5.9 35.2-5.5 35.2-4.85L35.2-4.85Q35.2-4.55 35.15-4.3 35.1-4.05 34.85-3.8L34.85-3.8Q32.4-1.35 29.18-0.43 25.95 0.5 22.55 0.5ZM61.4 0.5L61.4 0.5Q57.1 0.5 53.45-1 49.8-2.5 47.07-5.23 44.35-7.95 42.85-11.6 41.35-15.25 41.35-19.55L41.35-19.55Q41.35-23.85 42.85-27.48 44.35-31.1 47.07-33.83 49.8-36.55 53.45-38.05 57.1-39.55 61.4-39.55L61.4-39.55Q65.7-39.55 69.32-38.05 72.95-36.55 75.67-33.83 78.4-31.1 79.9-27.48 81.4-23.85 81.4-19.55L81.4-19.55Q81.4-15.25 79.9-11.6 78.4-7.95 75.67-5.23 72.95-2.5 69.32-1 65.7 0.5 61.4 0.5ZM61.4-2.5L61.4-2.5Q65-2.5 68.1-3.78 71.2-5.05 73.52-7.38 75.85-9.7 77.12-12.8 78.4-15.9 78.4-19.55L78.4-19.55Q78.4-23.15 77.12-26.25 75.85-29.35 73.52-31.68 71.2-34 68.1-35.27 65-36.55 61.4-36.55L61.4-36.55Q57.75-36.55 54.65-35.27 51.55-34 49.22-31.68 46.9-29.35 45.62-26.25 44.35-23.15 44.35-19.55L44.35-19.55Q44.35-15.9 45.62-12.8 46.9-9.7 49.22-7.38 51.55-5.05 54.65-3.78 57.75-2.5 61.4-2.5ZM90.9 0L90.9 0Q90.25 0 89.82-0.43 89.4-0.85 89.4-1.5L89.4-1.5 89.4-37.55Q89.4-38.2 89.82-38.63 90.25-39.05 90.9-39.05L90.9-39.05Q91.9-39.05 92.25-38.3L92.25-38.3 109.95-3.35 108.2-3.35 125.65-38.3Q126.1-39.05 127-39.05L127-39.05Q127.65-39.05 128.05-38.63 128.45-38.2 128.45-37.55L128.45-37.55 128.45-1.5Q128.45-0.85 128.05-0.43 127.65 0 127 0L127 0Q126.35 0 125.9-0.43 125.45-0.85 125.45-1.5L125.45-1.5 125.45-33.95 126.2-33.7 110.25-1.2Q109.9-0.5 108.95-0.5L108.95-0.5Q108.05-0.5 107.55-1.45L107.55-1.45 91.4-33.7 92.4-33.95 92.4-1.5Q92.4-0.85 91.97-0.43 91.55 0 90.9 0ZM139.94 0L139.94 0Q139.29 0 138.87-0.43 138.44-0.85 138.44-1.5L138.44-1.5 138.44-37.55Q138.44-38.2 138.87-38.63 139.29-39.05 139.94-39.05L139.94-39.05Q140.94-39.05 141.29-38.3L141.29-38.3 158.99-3.35 157.24-3.35 174.69-38.3Q175.14-39.05 176.04-39.05L176.04-39.05Q176.69-39.05 177.09-38.63 177.49-38.2 177.49-37.55L177.49-37.55 177.49-1.5Q177.49-0.85 177.09-0.43 176.69 0 176.04 0L176.04 0Q175.39 0 174.94-0.43 174.49-0.85 174.49-1.5L174.49-1.5 174.49-33.95 175.24-33.7 159.29-1.2Q158.94-0.5 157.99-0.5L157.99-0.5Q157.09-0.5 156.59-1.45L156.59-1.45 140.44-33.7 141.44-33.95 141.44-1.5Q141.44-0.85 141.02-0.43 140.59 0 139.94 0ZM213.04 0L188.99 0Q188.34 0 187.92-0.43 187.49-0.85 187.49-1.5L187.49-1.5 187.49-37.55Q187.49-38.2 187.92-38.63 188.34-39.05 188.99-39.05L188.99-39.05 213.04-39.05Q213.64-39.05 214.09-38.63 214.54-38.2 214.54-37.55L214.54-37.55Q214.54-36.95 214.09-36.5 213.64-36.05 213.04-36.05L213.04-36.05 190.49-36.05 190.49-21.05 207.04-21.05Q207.69-21.05 208.12-20.63 208.54-20.2 208.54-19.55L208.54-19.55Q208.54-18.9 208.12-18.45 207.69-18 207.04-18L207.04-18 190.49-18 190.49-3 213.04-3Q213.64-3 214.09-2.55 214.54-2.1 214.54-1.5L214.54-1.5Q214.54-0.85 214.09-0.43 213.64 0 213.04 0L213.04 0ZM223.29 0L223.29 0Q222.64 0 222.21-0.43 221.79-0.85 221.79-1.5L221.79-1.5 221.79-37.55Q221.79-38.2 222.21-38.63 222.64-39.05 223.29-39.05L223.29-39.05Q223.99-39.05 224.44-38.55L224.44-38.55 249.84-5.5 249.84-37.55Q249.84-38.2 250.26-38.63 250.69-39.05 251.34-39.05L251.34-39.05Q251.94-39.05 252.39-38.63 252.84-38.2 252.84-37.55L252.84-37.55 252.84-1.5Q252.84-0.85 252.39-0.43 251.94 0 251.34 0L251.34 0Q250.99 0 250.71-0.13 250.44-0.25 250.24-0.45L250.24-0.45 224.79-33.55 224.79-1.5Q224.79-0.85 224.36-0.43 223.94 0 223.29 0ZM274.09 0L274.09 0Q273.44 0 273.01-0.43 272.59-0.85 272.59-1.5L272.59-1.5 272.59-39.05 275.59-39.05 275.59-1.5Q275.59-0.85 275.16-0.43 274.74 0 274.09 0ZM288.24-36.35L259.94-36.35Q259.34-36.35 258.96-36.73 258.59-37.1 258.59-37.7L258.59-37.7Q258.59-38.3 258.96-38.68 259.34-39.05 259.94-39.05L259.94-39.05 288.24-39.05Q288.84-39.05 289.21-38.68 289.59-38.3 289.59-37.7L289.59-37.7Q289.59-37.1 289.21-36.73 288.84-36.35 288.24-36.35L288.24-36.35ZM321.23 0L321.23 0Q320.58 0 320.16-0.43 319.73-0.85 319.73-1.5L319.73-1.5 319.73-39.05 322.73-39.05 322.73-1.5Q322.73-0.85 322.31-0.43 321.88 0 321.23 0ZM335.38-36.35L307.08-36.35Q306.48-36.35 306.11-36.73 305.73-37.1 305.73-37.7L305.73-37.7Q305.73-38.3 306.11-38.68 306.48-39.05 307.08-39.05L307.08-39.05 335.38-39.05Q335.98-39.05 336.36-38.68 336.73-38.3 336.73-37.7L336.73-37.7Q336.73-37.1 336.36-36.73 335.98-36.35 335.38-36.35L335.38-36.35ZM343.98 0L343.98 0Q343.33 0 342.9-0.43 342.48-0.85 342.48-1.5L342.48-1.5 342.48-37.55Q342.48-38.2 342.9-38.63 343.33-39.05 343.98-39.05L343.98-39.05Q344.63-39.05 345.05-38.63 345.48-38.2 345.48-37.55L345.48-37.55 345.48-21.05 370.73-21.05 370.73-37.55Q370.73-38.2 371.15-38.63 371.58-39.05 372.23-39.05L372.23-39.05Q372.83-39.05 373.28-38.63 373.73-38.2 373.73-37.55L373.73-37.55 373.73-1.5Q373.73-0.85 373.28-0.43 372.83 0 372.23 0L372.23 0Q371.58 0 371.15-0.43 370.73-0.85 370.73-1.5L370.73-1.5 370.73-18.35 345.48-18.35 345.48-1.5Q345.48-0.85 345.05-0.43 344.63 0 343.98 0ZM409.28 0L385.23 0Q384.58 0 384.15-0.43 383.73-0.85 383.73-1.5L383.73-1.5 383.73-37.55Q383.73-38.2 384.15-38.63 384.58-39.05 385.23-39.05L385.23-39.05 409.28-39.05Q409.88-39.05 410.33-38.63 410.78-38.2 410.78-37.55L410.78-37.55Q410.78-36.95 410.33-36.5 409.88-36.05 409.28-36.05L409.28-36.05 386.73-36.05 386.73-21.05 403.28-21.05Q403.93-21.05 404.35-20.63 404.78-20.2 404.78-19.55L404.78-19.55Q404.78-18.9 404.35-18.45 403.93-18 403.28-18L403.28-18 386.73-18 386.73-3 409.28-3Q409.88-3 410.33-2.55 410.78-2.1 410.78-1.5L410.78-1.5Q410.78-0.85 410.33-0.43 409.88 0 409.28 0L409.28 0ZM441.07 0L441.07 0Q440.52 0 440.1-0.4 439.67-0.8 439.52-1.3L439.52-1.3 429.17-36.8Q428.92-37.7 429.32-38.38 429.72-39.05 430.57-39.05L430.57-39.05Q431.07-39.05 431.44-38.83 431.82-38.6 432.02-37.9L432.02-37.9 441.67-4.5 440.47-4.5 449.67-36.6Q449.77-37 450.19-37.27 450.62-37.55 451.07-37.55L451.07-37.55Q451.57-37.55 451.97-37.27 452.37-37 452.52-36.55L452.52-36.55 461.72-4.5 460.52-4.5 470.17-38.05Q470.42-39.05 471.62-39.05L471.62-39.05Q472.47-39.05 472.85-38.4 473.22-37.75 472.97-36.8L472.97-36.8 462.67-1.3Q462.47-0.65 462.05-0.33 461.62 0 461.12 0L461.12 0Q460.52 0 460.12-0.38 459.72-0.75 459.57-1.3L459.57-1.3 450.47-33.5 451.67-33.5 442.67-1.3Q442.47-0.7 442.05-0.35 441.62 0 441.07 0ZM505.12 0L481.07 0Q480.42 0 479.99-0.43 479.57-0.85 479.57-1.5L479.57-1.5 479.57-37.55Q479.57-38.2 479.99-38.63 480.42-39.05 481.07-39.05L481.07-39.05 505.12-39.05Q505.72-39.05 506.17-38.63 506.62-38.2 506.62-37.55L506.62-37.55Q506.62-36.95 506.17-36.5 505.72-36.05 505.12-36.05L505.12-36.05 482.57-36.05 482.57-21.05 499.12-21.05Q499.77-21.05 500.19-20.63 500.62-20.2 500.62-19.55L500.62-19.55Q500.62-18.9 500.19-18.45 499.77-18 499.12-18L499.12-18 482.57-18 482.57-3 505.12-3Q505.72-3 506.17-2.55 506.62-2.1 506.62-1.5L506.62-1.5Q506.62-0.85 506.17-0.43 505.72 0 505.12 0L505.12 0ZM528.37 0L515.82 0Q514.97 0 514.42-0.38 513.87-0.75 513.87-1.5L513.87-1.5 513.87-37.55Q513.87-38.25 514.29-38.65 514.72-39.05 515.37-39.05L515.37-39.05 527.62-39.05Q530.42-39.05 532.72-37.83 535.02-36.6 536.42-34.48 537.82-32.35 537.82-29.6L537.82-29.6Q537.82-26.7 536.29-24.53 534.77-22.35 532.32-21.25L532.32-21.25Q535.72-20.3 537.79-17.75 539.87-15.2 539.87-11.35L539.87-11.35Q539.87-8.05 538.39-5.48 536.92-2.9 534.32-1.45 531.72 0 528.37 0L528.37 0ZM516.87-19.55L516.87-3 528.37-3Q530.87-3 532.77-4.08 534.67-5.15 535.77-7.03 536.87-8.9 536.87-11.35L536.87-11.35Q536.87-13.75 535.77-15.6 534.67-17.45 532.77-18.5 530.87-19.55 528.37-19.55L528.37-19.55 516.87-19.55ZM516.87-36.05L516.87-22.55 527.62-22.55Q530.77-22.55 532.79-24.48 534.82-26.4 534.82-29.6L534.82-29.6Q534.82-32.7 532.79-34.38 530.77-36.05 527.62-36.05L527.62-36.05 516.87-36.05Z" opacity="1" transform="matrix(1,0,0,1,0,0)" fill="#0080ff" class="undefined-text-1" data-fill-palette-color="quaternary" id="text-1"></path></svg></g></svg></g></svg></g></svg></g><g transform="matrix(1,0,0,1,56.858970663169735,0)"><svg viewBox="0 0 99.44049990081764 87.01043741321544" height="87.01043741321544" width="99.44049990081764"><g><svg xmlns="http://www.w3.org/2000/svg" xmlns:xlink="http://www.w3.org/1999/xlink" version="1.1" x="0" y="0" viewBox="0 0 100 87.5" style="enable-background:new 0 0 100 87.5;" xml:space="preserve" width="99.44049990081764" height="87.01043741321544" class="icon-icon-0" data-fill-palette-color="quaternary" id="icon-0"><g fill="#0080ff" data-fill-palette-color="quaternary"><path d="M0 62.5c0 13.807 11.206 25 25 25C25 80.591 30.604 75 37.5 75h25C83.215 75 100 58.203 100 37.5S83.215 0 62.5 0H31.25C13.989 0 0 13.989 0 31.25V62.5z" fill="#0080ff" data-fill-palette-color="quaternary"></path></g></svg></g></svg></g><g></g></svg></g></svg></g></svg></g></svg></g><defs></defs></svg><rect width="342.85155851775386" height="342.85155851775386" fill="none" stroke="none" visibility="hidden"></rect></g></svg></g></svg>